<svg xmlns="http://www.w3.org/2000/svg" width="1280" height="640" viewBox="0 0 1280 640" role="img" aria-labelledby="title desc">
  <title id="title">L2MAS social preview</title>
  <desc id="desc">Social preview artwork for the Live2D Multi-Agent Animation System repository.</desc>
  <defs>
    <linearGradient id="background" x1="0" y1="0" x2="1" y2="1">
      <stop offset="0%" stop-color="#0b1020"/>
      <stop offset="48%" stop-color="#172554"/>
      <stop offset="100%" stop-color="#064e3b"/>
    </linearGradient>
    <linearGradient id="accent" x1="0" y1="0" x2="1" y2="0">
      <stop offset="0%" stop-color="#38bdf8"/>
      <stop offset="50%" stop-color="#a7f3d0"/>
      <stop offset="100%" stop-color="#facc15"/>
    </linearGradient>
  </defs>
  <rect width="1280" height="640" fill="url(#background)"/>
  <path d="M0 500 C220 390 380 610 610 480 C820 360 1010 440 1280 300 L1280 640 L0 640 Z" fill="#020617" opacity="0.55"/>
  <rect x="72" y="72" width="1136" height="496" rx="36" fill="#020617" opacity="0.5" stroke="#38bdf8" stroke-opacity="0.28"/>
  <circle cx="1052" cy="170" r="54" fill="#22d3ee" opacity="0.16"/>
  <circle cx="1124" cy="236" r="84" fill="#facc15" opacity="0.11"/>
  <g transform="translate(96 104)">
    <text x="0" y="86" font-family="Inter, ui-sans-serif, system-ui, -apple-system, BlinkMacSystemFont, Segoe UI, sans-serif" font-size="96" font-weight="800" fill="#f8fafc">L2MAS</text>
    <text x="4" y="148" font-family="Inter, ui-sans-serif, system-ui, -apple-system, BlinkMacSystemFont, Segoe UI, sans-serif" font-size="34" font-weight="650" fill="#cbd5e1">Live2D Multi-Agent Animation System</text>
    <rect x="4" y="192" width="520" height="8" rx="4" fill="url(#accent)"/>
    <text x="4" y="274" font-family="Inter, ui-sans-serif, system-ui, -apple-system, BlinkMacSystemFont, Segoe UI, sans-serif" font-size="42" font-weight="700" fill="#f8fafc">MCP + A2A + provider routing</text>
    <text x="4" y="334" font-family="Inter, ui-sans-serif, system-ui, -apple-system, BlinkMacSystemFont, Segoe UI, sans-serif" font-size="30" fill="#dbeafe">Cloud and local AI pipelines for Live2D animation</text>
    <g transform="translate(4 388)" font-family="Inter, ui-sans-serif, system-ui, -apple-system, BlinkMacSystemFont, Segoe UI, sans-serif" font-size="24" font-weight="700">
      <rect x="0" y="0" width="124" height="44" rx="22" fill="#0f766e"/>
      <text x="28" y="30" fill="#ecfeff">Live2D</text>
      <rect x="144" y="0" width="102" height="44" rx="22" fill="#1d4ed8"/>
      <text x="176" y="30" fill="#eff6ff">MCP</text>
      <rect x="266" y="0" width="90" height="44" rx="22" fill="#7e22ce"/>
      <text x="296" y="30" fill="#faf5ff">A2A</text>
      <rect x="376" y="0" width="128" height="44" rx="22" fill="#be123c"/>
      <text x="410" y="30" fill="#fff1f2">Local AI</text>
      <rect x="524" y="0" width="114" height="44" rx="22" fill="#854d0e"/>
      <text x="554" y="30" fill="#fffbeb">FFmpeg</text>
    </g>
  </g>
</svg>
